<svg version="1.0" xmlns="http://www.w3.org/2000/svg"
 width="420.000000pt" height="420.000000pt" viewBox="0 0 420.000000 420.000000"
 preserveAspectRatio="xMidYMid meet">

<g transform="translate(0.000000,420.000000) scale(0.100000,-0.100000)"
fill="#ffffff" stroke="none">
<path d="M1960 3841 c-81 -10 -141 -25 -205 -53 -112 -49 -230 -149 -259 -219
-14 -35 -17 -36 -76 -42 -77 -7 -135 -40 -220 -126 -84 -85 -137 -187 -190
-366 -23 -77 -60 -196 -83 -265 -70 -215 -63 -322 32 -485 23 -38 41 -75 41
-82 0 -7 3 -12 8 -11 4 2 23 -7 43 -20 28 -17 39 -31 44 -58 3 -20 18 -47 32
-60 26 -24 36 -66 65 -256 9 -61 8 -80 -2 -93 -20 -24 -49 -18 -83 18 l-31 32
20 -34 c25 -44 51 -55 97 -43 26 7 40 7 52 -2 9 -6 30 -59 46 -116 17 -58 49
-143 72 -190 34 -71 57 -102 141 -186 240 -241 489 -336 755 -290 113 20 223
69 362 161 153 102 233 203 309 387 21 51 45 97 53 102 9 6 29 3 55 -7 41 -16
42 -16 72 9 17 15 36 36 42 48 9 16 2 13 -26 -11 -40 -36 -67 -41 -86 -18 -13
16 -11 25 56 188 22 54 32 67 50 67 29 0 71 35 104 87 15 23 29 41 31 39 2 -3
5 15 7 40 2 34 15 61 57 122 152 221 178 382 96 593 -92 236 -118 277 -485
769 -182 242 -433 360 -796 374 -74 2 -164 1 -200 -3z m-339 -867 c68 -71 160
-106 464 -179 262 -62 338 -85 415 -126 82 -45 174 -109 166 -116 -3 -3 -41
-9 -86 -14 -104 -10 -152 -26 -148 -47 3 -14 13 -16 53 -12 28 3 97 5 155 5
l105 0 52 -69 c57 -76 102 -162 133 -252 29 -83 29 -375 0 -490 -26 -104 -105
-261 -177 -351 -56 -70 -203 -204 -291 -265 -56 -39 -119 -48 -362 -53 -279
-6 -297 1 -461 173 -124 130 -179 203 -230 303 -51 101 -75 175 -94 292 -17
95 -16 101 9 305 14 115 26 229 26 254 0 30 18 92 54 189 30 79 77 218 106
309 29 91 54 168 57 173 8 13 19 7 54 -29z"/>
<path d="M1567 2574 c-49 -18 -127 -77 -115 -89 4 -4 36 8 73 26 65 32 67 32
168 26 56 -4 131 -14 166 -22 59 -14 66 -14 80 0 14 14 14 17 1 25 -65 42
-290 62 -373 34z"/>
<path d="M2404 2351 c-38 -23 -69 -86 -95 -188 -24 -100 -24 -105 6 -137 14
-15 25 -21 25 -14 0 26 58 134 86 159 76 70 191 90 279 50 55 -24 119 -100
135 -157 10 -35 15 -42 22 -30 23 40 -32 140 -104 188 -116 78 -247 62 -350
-43 -31 -32 -59 -55 -62 -52 -3 4 -6 25 -6 48 0 44 29 95 93 163 35 36 20 43
-29 13z"/>
<path d="M1609 2326 c-87 -31 -151 -95 -165 -164 -9 -42 9 -41 24 2 16 44 75
104 126 127 88 40 222 14 288 -57 33 -36 67 -110 68 -146 0 -16 4 -28 10 -28
17 0 0 81 -28 133 -64 118 -204 176 -323 133z"/>
<path d="M1633 2248 c-17 -13 -39 -35 -47 -50 -19 -31 -21 -122 -3 -135 6 -5
48 -17 91 -26 73 -15 82 -15 104 -1 31 20 52 4 31 -23 -7 -10 -1 -7 13 6 19
16 31 41 38 78 11 50 10 56 -15 98 -14 25 -39 52 -55 60 -44 23 -119 19 -157
-7z m56 -42 c9 -11 10 -20 1 -36 -13 -24 -38 -23 -53 1 -23 37 25 68 52 35z"/>
<path d="M2535 2196 c-87 -39 -121 -154 -67 -223 16 -21 20 -22 97 -11 44 6
96 11 115 11 19 0 40 8 47 16 18 23 16 101 -5 141 -30 61 -125 95 -187 66z
m35 -69 c0 -24 -18 -39 -41 -35 -29 4 -38 37 -14 54 20 15 55 2 55 -19z"/>
<path d="M2261 1706 c-13 -54 -42 -76 -107 -84 -85 -9 -164 36 -164 94 0 13
-4 24 -10 24 -18 0 -23 -53 -9 -94 17 -48 67 -78 143 -84 113 -9 176 35 176
123 0 63 -15 74 -29 21z"/>
<path d="M1644 1545 c-7 -17 12 -45 30 -45 6 0 22 -26 36 -58 35 -83 143 -188
243 -237 62 -31 91 -39 151 -43 82 -5 150 4 141 18 -3 6 1 7 10 4 47 -19 227
121 274 214 14 27 28 42 41 42 24 0 33 15 25 40 -9 28 -59 27 -79 -1 -13 -19
-24 -21 -93 -20 -43 0 -108 4 -144 7 -42 4 -86 2 -117 -6 -45 -12 -57 -11
-116 8 -42 14 -92 22 -135 22 -101 0 -172 16 -199 45 -26 28 -60 33 -68 10z
m456 -125 c170 -14 210 -20 210 -31 0 -22 -299 -6 -404 22 -51 14 -29 32 29
25 22 -3 96 -10 165 -16z m25 -223 c35 1 44 -1 30 -7 -32 -14 -88 -11 -115 6
l-25 15 30 -8 c17 -4 53 -7 80 -6z"/>
<path d="M2425 1235 c-46 -36 -185 -105 -227 -111 -21 -4 -38 -11 -38 -16 0
-16 90 1 143 28 52 26 157 104 157 116 0 11 -1 10 -35 -17z"/>
<path d="M1865 1211 c42 -44 125 -91 159 -91 14 0 5 8 -23 20 -24 11 -73 41
-110 66 l-66 46 40 -41z"/>
<path d="M2058 1113 c7 -3 16 -2 19 1 4 3 -2 6 -13 5 -11 0 -14 -3 -6 -6z"/>

</g>
</svg>